<svg xmlns="http://www.w3.org/2000/svg" version="1.1" xmlns:xlink="http://www.w3.org/1999/xlink" xmlns:svgjs="http://svgjs.dev/svgjs" width="2000" height="1500" viewBox="0 0 2000 1500"><rect width="2000" height="1500" fill="#77d4fc"></rect><g transform="matrix(0.4444444444444444,0,0,0.4444444444444444,555.5555555555557,250)"><svg viewBox="0 0 320 360" data-background-color="#77d4fc" preserveAspectRatio="xMidYMid meet" height="2250" width="2000" xmlns="http://www.w3.org/2000/svg" xmlns:xlink="http://www.w3.org/1999/xlink"><g id="tight-bounds" transform="matrix(1,0,0,1,0,0)"><svg viewBox="0 0 320 360" height="360" width="320"><g><svg></svg></g><g><svg viewBox="0 0 320 360" height="360" width="320"><g><path d="M20.961 227.22l3.726 4.658-1.863-6.056c-0.466-2.795-3.726 0.466-1.863 1.398M25.153 224.425c1.397 2.329 2.795 4.658 2.795 6.987 0 3.261 2.795 4.658 5.123 5.589-3.261-3.726-5.124-13.974-7.918-12.576M204.017 26.929c7.918 0 15.371-0.932 23.756 0.931 20.495 5.124 37.729 15.371 49.374 29.811l32.606 52.169c1.397 13.042 4.192 27.482 3.726 43.319 3.261 0 2.795-4.658 6.521-5.59-3.726 9.316-5.59 20.961-6.521 34.469-2.329-7.453 0-18.632 0.466-24.687-3.261 5.124-5.124 1.397-5.124-0.932 0.466-3.726-1.397-3.261-2.795-4.658-5.124-4.658-8.384-9.782-12.11-17.7 2.329-6.055 2.795-14.905-4.658-19.563-2.329-1.397-5.124-3.726-6.521-7.453-1.863-5.124-5.124-11.179-4.193-19.097 0.466-2.329-6.987 5.124-11.179 1.863-18.166-12.576-36.332-27.016-58.224-39.127-11.645 0-20.029-4.192-24.221-9.316-3.726-4.658-0.932-10.713 4.658-11.179 3.261 0 6.987-0.932 9.782 0.932 0.466-1.863 2.329-4.192 4.657-4.192M157.904 16.215l0.932 0.466c4.658 0.932 6.987 7.453 12.11 5.124 0 3.261 0.466 6.521-0.466 8.85-1.397 3.726-5.59 3.726-8.85 3.726-31.208-1.863-49.374 11.179-68.471 22.358-5.124 3.261-10.713 5.59-14.906 9.782-20.029 18.632-41.921 35.866-47.045 70.335l-4.192 38.195c-0.466 4.192-5.124 8.384-4.192 13.508l3.26 22.824c-3.261-3.261-5.124 0.932-4.192 2.795 0.466 1.397 2.329 6.055 5.124 1.863 3.726 6.987 7.453 20.495 12.576 26.55 15.837 18.632 36.332 35.4 53.101 52.169 4.192-0.932 7.453-0.932 8.384-3.727 1.397 2.795-1.397 5.59-3.726 6.056 7.453 4.658 15.837 8.85 27.016 9.781 14.44 0.932 27.948 3.261 40.524 6.522 6.521-1.863 13.042-2.795 20.029-3.261 2.329 0 3.726-3.726 6.521-4.658l0.466-4.658c2.795 4.192 2.329-1.397 0.466-4.192 3.261 2.795 4.192 5.124 5.589 6.987 0-1.397 3.726-6.521 3.727-0.466l0.931-6.055c1.397-0.932 1.863 5.124 3.261 0.931 1.397-4.192 4.192-0.932 6.987-2.329-0.932 1.863-0.466 5.59 2.794 3.261l3.727-3.261c2.329 5.59 6.055 3.261 7.918 2.329 20.495-13.042 40.99-28.413 60.553-43.784l-0.466 6.055 2.329-7.453c2.329 2.329 4.192 0.466 5.124-0.931 2.795-4.658 6.521-9.316 12.577-13.508-7.453 20.029-16.303 35.866-27.482 48.908l-4.658 5.59c0 3.261-0.932 7.453-4.658 7.918-1.863 0.466-5.59-0.932-8.384 1.863-1.397 1.863 3.261 5.59-0.466 2.795-3.261-2.329-6.521 0-10.248 0.932-2.795 0.932 1.863 3.726 2.795 5.589 0.932 1.863 1.863 3.726 1.398 6.056l-5.124-5.59c-6.055 3.261-9.782 9.316-14.906 13.974-2.329 1.863-1.397 5.124-1.397 7.918-3.261 0-6.987-0.932-8.85 0.932-1.397 1.863-0.932 4.658-0.932 7.453-4.658-0.466-5.124-7.453-9.315-6.056-4.192 0.932-8.85 1.397-12.577 3.727 2.795 5.59-4.658 2.329-3.726 3.26-6.987-4.192-13.042-7.453-20.495-4.658-15.837-5.124-35.4-2.795-49.84-0.931 0-2.329 0.466-4.658-0.466-5.124-0.932 2.329-3.726 1.397-3.26 1.397-8.85-6.055-17.7-9.782-27.016-14.905-8.384 0.932-16.303-3.261-18.632-5.59-6.521-6.055-13.974-2.795-20.029-4.192-13.042-3.261-17.7-16.769-19.098-26.084-0.932-4.658-4.658-6.521-6.055-6.056-6.055-19.563-15.371-37.263-22.824-55.429-1.863-4.658-1.397-9.316-1.397-14.44 2.329 0.932 4.658 0.466 4.192-2.794-2.329-15.371-7.918-27.016-13.974-38.195 3.261-15.837 3.726-34.469 11.179-48.443 6.521-12.576 18.632-19.098 27.016-29.811 2.795-3.726 2.795-8.85 5.59-12.11 9.316-9.316 18.632-19.098 28.879-27.482 4.658-3.726 10.247 0 17.234-1.397 2.329-8.384 11.645-15.837 20.495-13.508 3.726 0.932 11.179-8.85 13.508-9.782 3.726-1.397 1.863 3.726 1.863 6.987 8.85-6.987 20.961-10.713 32.14-14.906" fill="#000000" fill-rule="nonzero" stroke="none" stroke-width="1" stroke-linecap="butt" stroke-linejoin="miter" stroke-miterlimit="10" stroke-dasharray="" stroke-dashoffset="0" font-family="none" font-weight="none" font-size="none" text-anchor="none" style="mix-blend-mode: normal" data-fill-palette-color="tertiary"></path></g><g transform="matrix(1,0,0,1,64,163.64903225806452)"><svg viewBox="0 0 192 32.70193548387097" height="32.70193548387097" width="192"><g><svg viewBox="0 0 192 32.70193548387097" height="32.70193548387097" width="192"><g><svg viewBox="0 0 192 32.70193548387097" height="32.70193548387097" width="192"><g id="textblocktransform"><svg viewBox="0 0 192 32.70193548387097" height="32.70193548387097" width="192" id="textblock"><g><svg viewBox="0 0 192 32.70193548387097" height="32.70193548387097" width="192"><g transform="matrix(1,0,0,1,0,0)"><svg width="192" viewBox="2.27 -36.91 227.04 38.669999999999995" height="32.70193548387097" data-palette-color="#000000"><path d="M29.81-17.77L29.81-17.77 29.76-17.8Q32.52-20.48 32.52-24.34L32.52-24.34Q32.52-28 29.8-30.7 27.08-33.4 23.36-33.4L23.36-33.4 4.03-33.4 4.03 0 2.27 0 2.27-35.16 23.36-35.16Q26.25-35.16 28.77-33.68 31.3-32.2 32.79-29.7 34.28-27.2 34.28-24.34L34.28-24.34Q34.28-20.43 32.18-17.63L32.18-17.63Q34.28-14.72 34.28-11.23L34.28-11.23Q34.28-7.89 32.76-5.33 31.25-2.78 28.8-1.49 26.34-0.2 23.36-0.2L23.36-0.2 12.26-0.2 12.26-1.95 23.36-1.95Q27.12-1.95 29.82-4.63 32.52-7.3 32.52-11.23L32.52-11.23Q32.52-13.04 31.74-14.79 30.96-16.55 29.79-17.75L29.79-17.75Q29.79-17.77 29.81-17.77ZM23.36-8.98L23.36-8.98 12.26-8.98 12.26-7.23 23.36-7.23Q24.98-7.23 26.11-8.31 27.25-9.4 27.25-11.23L27.25-11.23Q27.25-12.82 26.07-14.03 24.9-15.23 23.36-15.23L23.36-15.23 12.23-15.23 12.23-13.48 23.36-13.48Q24.19-13.48 24.84-12.79 25.49-12.11 25.49-11.23L25.49-11.23Q25.49-10.16 24.88-9.57 24.27-8.98 23.36-8.98ZM23.36-5.47L23.36-5.47 12.26-5.47 12.26-3.71 23.36-3.71Q26.39-3.71 28.58-5.87 30.76-8.03 30.76-11.23L30.76-11.23Q30.76-13.26 29.68-15.05 28.59-16.85 26.81-17.82L26.81-17.82Q28.59-18.75 29.68-20.47 30.76-22.19 30.76-24.34L30.76-24.34Q30.76-27.27 28.55-29.46 26.34-31.64 23.36-31.64L23.36-31.64 5.79-31.64 5.79 0 7.54 0 7.54-29.88 23.36-29.88Q25.61-29.88 27.31-28.21 29-26.54 29-24.34L29-24.34Q29-21.9 27.34-20.32 25.68-18.75 23.36-18.75L23.36-18.75 17.99-18.75 12.26-18.75 12.26-16.99 17.99-16.99 23.36-16.99Q25.61-16.99 27.31-15.26 29-13.53 29-11.23L29-11.23Q29-8.69 27.34-7.08 25.68-5.47 23.36-5.47ZM23.36-22.27L23.36-22.27 12.26-22.27 12.26-20.51 23.36-20.51Q25-20.51 26.12-21.55 27.25-22.58 27.25-24.34L27.25-24.34Q27.25-25.83 26.07-26.98 24.9-28.13 23.36-28.13L23.36-28.13 9.3-28.13 9.3 0 11.06 0 11.06-26.37 23.36-26.37Q24.19-26.37 24.84-25.74 25.49-25.12 25.49-24.34L25.49-24.34Q25.49-23.34 24.88-22.8 24.27-22.27 23.36-22.27ZM38.3 0L38.3-35.16 40.06-35.16 40.06 0 38.3 0ZM48.85 0L48.85-35.16 50.61-35.16 50.61-8.79 63.57-8.79 63.57-7.03 50.61-7.03 50.61-5.27 63.57-5.27 63.57-3.52 50.61-3.52 50.61-1.76 63.57-1.76 63.57 0 48.85 0ZM45.33 0L45.33-35.16 47.09-35.16 47.09 0 45.33 0ZM41.82 0L41.82-35.16 43.58-35.16 43.58 0 41.82 0ZM80.89-22.55Q78.83-20.48 78.83-17.58 78.83-14.67 80.89-12.61 82.95-10.55 85.86-10.55 88.76-10.55 90.83-12.61 92.89-14.67 92.89-17.58 92.89-20.48 90.83-22.55 88.76-24.61 85.86-24.61 82.95-24.61 80.89-22.55ZM79.65-11.36Q77.07-13.94 77.07-17.58 77.07-21.22 79.65-23.79 82.22-26.37 85.86-26.37 89.5-26.37 92.07-23.79 94.65-21.22 94.65-17.58 94.65-13.94 92.07-11.36 89.5-8.79 85.86-8.79 82.22-8.79 79.65-11.36ZM78.4-25.02Q75.31-21.92 75.31-17.58 75.31-13.23 78.4-10.13 81.49-7.03 85.86-7.03 90.23-7.03 93.32-10.13 96.41-13.23 96.41-17.58 96.41-21.92 93.32-25.02 90.23-28.13 85.86-28.13 81.49-28.13 78.4-25.02ZM75.2-11.4Q73.55-14.23 73.55-17.58 73.55-20.92 75.2-23.75 76.85-26.59 79.68-28.23 82.51-29.88 85.86-29.88 89.2-29.88 92.04-28.23 94.87-26.59 96.52-23.75 98.16-20.92 98.16-17.58 98.16-14.23 96.52-11.4 94.87-8.57 92.04-6.92 89.2-5.27 85.86-5.27 82.51-5.27 79.68-6.92 76.85-8.57 75.2-11.4ZM72.91-23.03Q71.8-20.43 71.8-17.58 71.8-14.72 72.91-12.12 74.02-9.52 75.91-7.63 77.8-5.74 80.4-4.63 83-3.52 85.86-3.52 88.72-3.52 91.32-4.63 93.92-5.74 95.81-7.63 97.7-9.52 98.81-12.12 99.92-14.72 99.92-17.58 99.92-20.43 98.81-23.03 97.7-25.63 95.81-27.53 93.92-29.42 91.32-30.53 88.72-31.64 85.86-31.64 83-31.64 80.4-30.53 77.8-29.42 75.91-27.53 74.02-25.63 72.91-23.03ZM71.3-11.43Q70.04-14.36 70.04-17.58 70.04-20.8 71.3-23.73 72.55-26.66 74.67-28.77 76.78-30.88 79.71-32.14 82.64-33.4 85.86-33.4 89.08-33.4 92.01-32.14 94.94-30.88 97.05-28.77 99.16-26.66 100.42-23.73 101.68-20.8 101.68-17.58 101.68-14.36 100.42-11.43 99.16-8.5 97.05-6.38 94.94-4.27 92.01-3.02 89.08-1.76 85.86-1.76 82.64-1.76 79.71-3.02 76.78-4.27 74.67-6.38 72.55-8.5 71.3-11.43ZM69.67-24.4Q68.28-21.14 68.28-17.58 68.28-14.01 69.67-10.75 71.06-7.5 73.42-5.14 75.78-2.78 79.04-1.39 82.29 0 85.86 0 89.42 0 92.68-1.39 95.94-2.78 98.3-5.14 100.65-7.5 102.05-10.75 103.44-14.01 103.44-17.58 103.44-21.14 102.05-24.4 100.65-27.66 98.3-30.02 95.94-32.37 92.68-33.76 89.42-35.16 85.86-35.16 82.29-35.16 79.04-33.76 75.78-32.37 73.42-30.02 71.06-27.66 69.67-24.4ZM68.06-10.07Q66.52-13.65 66.52-17.58 66.52-21.51 68.06-25.09 69.6-28.66 72.19-31.25 74.78-33.84 78.35-35.38 81.93-36.91 85.86-36.91 89.79-36.91 93.37-35.38 96.94-33.84 99.53-31.25 102.12-28.66 103.66-25.09 105.2-21.51 105.2-17.58 105.2-13.65 103.66-10.07 102.12-6.49 99.53-3.91 96.94-1.32 93.37 0.22 89.79 1.76 85.86 1.76 81.93 1.76 78.35 0.22 74.78-1.32 72.19-3.91 69.6-6.49 68.06-10.07ZM137.66-12.62L137.66-17.82 139.42-17.82 139.42 0Q135.51 1.76 131.34 1.76L131.34 1.76Q127.41 1.76 123.83 0.22 120.26-1.32 117.67-3.91 115.08-6.49 113.54-10.07 112-13.65 112-17.58 112-21.51 113.54-25.09 115.08-28.66 117.67-31.25 120.26-33.84 123.83-35.38 127.41-36.91 131.34-36.91L131.34-36.91Q135.83-36.91 139.79-34.97 143.74-33.03 146.45-29.64L146.45-29.64 145.04-28.59Q142.57-31.64 138.99-33.4 135.42-35.16 131.34-35.16L131.34-35.16Q127.78-35.16 124.52-33.76 121.26-32.37 118.9-30.02 116.55-27.66 115.15-24.4 113.76-21.14 113.76-17.58 113.76-14.01 115.15-10.75 116.55-7.5 118.9-5.14 121.26-2.78 124.52-1.39 127.78 0 131.34 0L131.34 0Q134.64 0 137.66-1.17L137.66-1.17 137.66-2.98Q134.61-1.76 131.34-1.76L131.34-1.76Q128.12-1.76 125.19-3.02 122.26-4.27 120.15-6.38 118.03-8.5 116.78-11.43 115.52-14.36 115.52-17.58 115.52-20.8 116.78-23.73 118.03-26.66 120.15-28.77 122.26-30.88 125.19-32.14 128.12-33.4 131.34-33.4L131.34-33.4Q135.03-33.4 138.26-31.81 141.5-30.22 143.72-27.44L143.72-27.44 142.35-26.34Q140.37-28.81 137.49-30.22 134.61-31.64 131.34-31.64L131.34-31.64Q128.48-31.64 125.88-30.53 123.28-29.42 121.39-27.53 119.5-25.63 118.39-23.03 117.28-20.43 117.28-17.58 117.28-14.72 118.39-12.12 119.5-9.52 121.39-7.63 123.28-5.74 125.88-4.63 128.48-3.52 131.34-3.52L131.34-3.52Q134.71-3.52 137.66-4.88L137.66-4.88 137.66-6.69Q134.71-5.27 131.34-5.27L131.34-5.27Q128-5.27 125.16-6.92 122.33-8.57 120.68-11.4 119.04-14.23 119.04-17.58 119.04-20.92 120.68-23.75 122.33-26.59 125.16-28.23 128-29.88 131.34-29.88L131.34-29.88Q134.2-29.88 136.72-28.65 139.25-27.42 140.96-25.24L140.96-25.24 139.57-24.17Q138.1-26.03 135.94-27.08 133.78-28.13 131.34-28.13L131.34-28.13Q126.97-28.13 123.88-25.02 120.79-21.92 120.79-17.58 120.79-13.23 123.88-10.13 126.97-7.03 131.34-7.03L131.34-7.03Q134.76-7.03 137.66-8.69L137.66-8.69 137.66-10.47Q134.81-8.79 131.34-8.79L131.34-8.79Q127.7-8.79 125.13-11.36 122.55-13.94 122.55-17.58 122.55-21.22 125.13-23.79 127.7-26.37 131.34-26.37L131.34-26.37Q133.39-26.37 135.2-25.48 137-24.58 138.22-23.05L138.22-23.05 136.81-21.97Q134.68-24.61 131.34-24.61L131.34-24.61Q128.43-24.61 126.37-22.55 124.31-20.48 124.31-17.58 124.31-14.67 126.37-12.61 128.43-10.55 131.34-10.55L131.34-10.55Q135.08-10.55 137.66-12.62L137.66-12.62ZM148.21 0L148.21-17.82 149.97-17.82 149.97 0 148.21 0ZM144.69 0L144.69-17.82 146.45-17.82 146.45 0 144.69 0ZM141.18 0L141.18-17.82 142.94-17.82 142.94 0 141.18 0ZM179.02-12.62L179.02-17.82 180.78-17.82 180.78 0Q176.87 1.76 172.7 1.76L172.7 1.76Q168.76 1.76 165.19 0.22 161.61-1.32 159.02-3.91 156.44-6.49 154.9-10.07 153.36-13.65 153.36-17.58 153.36-21.51 154.9-25.09 156.44-28.66 159.02-31.25 161.61-33.84 165.19-35.38 168.76-36.91 172.7-36.91L172.7-36.91Q177.19-36.91 181.14-34.97 185.1-33.03 187.81-29.64L187.81-29.64 186.39-28.59Q183.93-31.64 180.35-33.4 176.77-35.16 172.7-35.16L172.7-35.16Q169.13-35.16 165.87-33.76 162.61-32.37 160.26-30.02 157.9-27.66 156.51-24.4 155.12-21.14 155.12-17.58 155.12-14.01 156.51-10.75 157.9-7.5 160.26-5.14 162.61-2.78 165.87-1.39 169.13 0 172.7 0L172.7 0Q175.99 0 179.02-1.17L179.02-1.17 179.02-2.98Q175.97-1.76 172.7-1.76L172.7-1.76Q169.47-1.76 166.54-3.02 163.61-4.27 161.5-6.38 159.39-8.5 158.13-11.43 156.87-14.36 156.87-17.58 156.87-20.8 158.13-23.73 159.39-26.66 161.5-28.77 163.61-30.88 166.54-32.14 169.47-33.4 172.7-33.4L172.7-33.4Q176.38-33.4 179.62-31.81 182.85-30.22 185.07-27.44L185.07-27.44 183.71-26.34Q181.73-28.81 178.85-30.22 175.97-31.64 172.7-31.64L172.7-31.64Q169.84-31.64 167.24-30.53 164.64-29.42 162.75-27.53 160.85-25.63 159.74-23.03 158.63-20.43 158.63-17.58 158.63-14.72 159.74-12.12 160.85-9.52 162.75-7.63 164.64-5.74 167.24-4.63 169.84-3.52 172.7-3.52L172.7-3.52Q176.06-3.52 179.02-4.88L179.02-4.88 179.02-6.69Q176.06-5.27 172.7-5.27L172.7-5.27Q169.35-5.27 166.52-6.92 163.69-8.57 162.04-11.4 160.39-14.23 160.39-17.58 160.39-20.92 162.04-23.75 163.69-26.59 166.52-28.23 169.35-29.88 172.7-29.88L172.7-29.88Q175.55-29.88 178.08-28.65 180.61-27.42 182.31-25.24L182.31-25.24 180.92-24.17Q179.46-26.03 177.3-27.08 175.14-28.13 172.7-28.13L172.7-28.13Q168.32-28.13 165.24-25.02 162.15-21.92 162.15-17.58 162.15-13.23 165.24-10.13 168.32-7.03 172.7-7.03L172.7-7.03Q176.11-7.03 179.02-8.69L179.02-8.69 179.02-10.47Q176.16-8.79 172.7-8.79L172.7-8.79Q169.06-8.79 166.48-11.36 163.91-13.94 163.91-17.58 163.91-21.22 166.48-23.79 169.06-26.37 172.7-26.37L172.7-26.37Q174.75-26.37 176.55-25.48 178.36-24.58 179.58-23.05L179.58-23.05 178.16-21.97Q176.04-24.61 172.7-24.61L172.7-24.61Q169.79-24.61 167.73-22.55 165.66-20.48 165.66-17.58 165.66-14.67 167.73-12.61 169.79-10.55 172.7-10.55L172.7-10.55Q176.43-10.55 179.02-12.62L179.02-12.62ZM189.57 0L189.57-17.82 191.32-17.82 191.32 0 189.57 0ZM186.05 0L186.05-17.82 187.81-17.82 187.81 0 186.05 0ZM182.53 0L182.53-17.82 184.29-17.82 184.29 0 182.53 0ZM216.49-11.87L227.55-35.16 229.31-35.16 218.25-11.87 218.25 0 216.49 0 216.49-11.87ZM212.98-11.87L224.04-35.16 225.79-35.16 214.73-11.87 214.73 0 212.98 0 212.98-11.87ZM209.46-11.87L220.52-35.16 222.28-35.16 211.22-11.87 211.22 0 209.46 0 209.46-11.87ZM206.8-13.65L217-35.16 218.76-35.16 207.7-11.87 207.7 0 205.94 0 205.94-11.87 194.15-35.16 195.91-35.16 206.8-13.65ZM207.29-16.65L197.69-35.16 199.45-35.16 208.17-18.58 207.29-16.65ZM209.02-20.51L201.21-35.16 202.99-35.16 209.92-22.44 209.02-20.51ZM210.8-24.34L204.77-35.16 206.53-35.16 211.68-26.27 210.8-24.34Z" opacity="1" transform="matrix(1,0,0,1,0,0)" fill="#000000" class="wordmark-text-0" data-fill-palette-color="primary" id="text-0"></path></svg></g></svg></g></svg></g></svg></g></svg></g></svg></g></svg></g><defs></defs></svg><rect width="320" height="360" fill="none" stroke="none" visibility="hidden"></rect></g></svg></g></svg>